# MagicaVoxel @ Ephtracy

# group
o 

# material
mtllib clown.mtl
usemtl palette

# normals
vn -1 0 0
vn 1 0 0
vn 0 0 1
vn 0 0 -1
vn 0 -1 0
vn 0 1 0

# texcoords
vt 0.0332031 0.5
vt 0.0371094 0.5
vt 0.0644531 0.5
vt 0.0800781 0.5
vt 0.0839844 0.5
vt 0.111328 0.5
vt 0.455078 0.5
vt 0.587891 0.5
vt 0.958984 0.5
vt 0.994141 0.5

# verts
v -1 4.2 0.6
v -1 4.2 -0.5
v -1 4.3 0.6
v -1 4.3 -0.5
v -0.9 4.3 0.6
v -0.9 4.3 -0.5
v -0.9 4.4 0.6
v -0.9 4.4 -0.5
v -0.8 0 0.3
v -0.8 0 -0.2
v -0.8 0.2 0.3
v -0.8 0.2 -0.2
v -0.8 1.4 0.2
v -0.8 1.4 -0.1
v -0.8 1.6 0.2
v -0.8 1.6 -0.1
v -0.8 2.5 0.2
v -0.8 2.5 -0.1
v -0.8 2.8 0.2
v -0.8 2.8 0.0999998
v -0.8 2.9 0.2
v -0.8 2.9 0.0999998
v -0.8 2.9 -0.1
v -0.8 4.4 0.6
v -0.8 4.4 -0.5
v -0.8 4.5 0.6
v -0.8 4.5 -0.5
v -0.7 3.1 -1.78814e-07
v -0.7 3.1 -0.5
v -0.7 3.5 0.2
v -0.7 3.5 -1.78814e-07
v -0.7 3.8 0.6
v -0.7 3.8 0.2
v -0.7 3.8 -1.78814e-07
v -0.7 4.2 0.6
v -0.7 4.2 -0.5
v -0.7 4.5 0.6
v -0.7 4.5 -0.5
v -0.7 4.6 0.6
v -0.7 4.6 -0.5
v -0.6 0.2 0.3
v -0.6 0.2 -0.2
v -0.6 0.9 0.3
v -0.6 0.9 -0.2
v -0.6 1 0.3
v -0.6 1 0.2
v -0.6 1.1 0.3
v -0.6 1.1 0.2
v -0.6 1.4 0.3
v -0.6 1.4 0.2
v -0.6 1.4 -0.1
v -0.6 1.4 -0.2
v -0.6 1.6 0.2
v -0.6 1.6 -0.1
v -0.6 2.5 0.2
v -0.6 2.5 -0.1
v -0.6 2.9 0.3
v -0.6 2.9 0.2
v -0.6 2.9 -0.1
v -0.6 2.9 -0.2
v -0.6 3.1 0.6
v -0.6 3.1 -1.78814e-07
v -0.6 3.5 0.2
v -0.6 3.5 -1.78814e-07
v -0.6 3.8 0.6
v -0.6 3.8 0.2
v -0.6 4.6 0.6
v -0.6 4.6 -0.5
v -0.6 4.7 0.6
v -0.6 4.7 -0.5
v -0.4 2.9 0.2
v -0.4 2.9 -0.1
v -0.4 3.1 0.2
v -0.4 3.1 -0.1
v -0.2 3.5 0.8
v -0.2 3.5 0.6
v -0.2 3.7 0.8
v -0.2 3.7 0.6
v 0 0 0.3
v 0 0 -0.2
v 0 0.2 0.3
v 0 0.2 -0.2
v 0 0.9 0.3
v 0 0.9 -0.2
v 0 1.2 0.3
v 0 1.2 -0.2
v 0.3 4.3 0.6
v 0.3 4.3 -0.5
v 0.3 4.7 0.6
v 0.3 4.7 -0.5
v -0.5 4.3 0.6
v -0.5 4.3 -0.5
v -0.5 4.7 0.6
v -0.5 4.7 -0.5
v -0.2 0 0.3
v -0.2 0 -0.2
v -0.2 0.2 0.3
v -0.2 0.2 -0.2
v -0.2 0.9 0.3
v -0.2 0.9 0.2
v -0.2 0.9 -0.1
v -0.2 0.9 -0.2
v -0.2 1.2 0.3
v -0.2 1.2 0.2
v -0.2 1.2 -0.1
v -0.2 1.2 -0.2
v 0 3.5 0.8
v 0 3.5 0.6
v 0 3.7 0.8
v 0 3.7 0.6
v 0.2 2.9 0.2
v 0.2 2.9 -0.1
v 0.2 3.1 0.2
v 0.2 3.1 -0.1
v 0.4 0.2 0.3
v 0.4 0.2 -0.2
v 0.4 0.9 0.3
v 0.4 0.9 -0.2
v 0.4 1.2 0.3
v 0.4 1.2 0.2
v 0.4 1.3 0.3
v 0.4 1.3 0.2
v 0.4 1.4 0.3
v 0.4 1.4 0.2
v 0.4 1.4 -0.1
v 0.4 1.4 -0.2
v 0.4 1.6 0.2
v 0.4 1.6 -0.1
v 0.4 2.5 0.2
v 0.4 2.5 -0.1
v 0.4 2.9 0.3
v 0.4 2.9 0.2
v 0.4 2.9 -0.1
v 0.4 2.9 -0.2
v 0.4 3.1 0.6
v 0.4 3.1 -1.78814e-07
v 0.4 3.5 0.2
v 0.4 3.5 -1.78814e-07
v 0.4 3.8 0.6
v 0.4 3.8 0.2
v 0.4 4.6 0.6
v 0.4 4.6 -0.5
v 0.4 4.7 0.6
v 0.4 4.7 -0.5
v 0.5 3.1 -1.78814e-07
v 0.5 3.1 -0.5
v 0.5 3.5 0.2
v 0.5 3.5 -1.78814e-07
v 0.5 3.8 0.6
v 0.5 3.8 0.2
v 0.5 3.8 -1.78814e-07
v 0.5 4.2 0.6
v 0.5 4.2 -0.5
v 0.5 4.5 0.6
v 0.5 4.5 -0.5
v 0.5 4.6 0.6
v 0.5 4.6 -0.5
v 0.6 0 0.3
v 0.6 0 -0.2
v 0.6 0.2 0.3
v 0.6 0.2 -0.2
v 0.6 1.4 0.2
v 0.6 1.4 -0.1
v 0.6 1.6 0.2
v 0.6 1.6 -0.1
v 0.6 2.5 0.2
v 0.6 2.5 -0.1
v 0.6 2.8 0.2
v 0.6 2.8 0.0999998
v 0.6 2.9 0.2
v 0.6 2.9 0.0999998
v 0.6 2.9 -0.1
v 0.6 4.4 0.6
v 0.6 4.4 -0.5
v 0.6 4.5 0.6
v 0.6 4.5 -0.5
v 0.7 4.3 0.6
v 0.7 4.3 -0.5
v 0.7 4.4 0.6
v 0.7 4.4 -0.5
v 0.8 4.2 0.6
v 0.8 4.2 -0.5
v 0.8 4.3 0.6
v 0.8 4.3 -0.5
v -0.2 3.5 0.8
v -0.2 3.7 0.8
v 0 3.5 0.8
v 0 3.7 0.8
v -1 4.2 0.6
v -1 4.3 0.6
v -0.9 4.3 0.6
v -0.9 4.4 0.6
v -0.8 4.4 0.6
v -0.8 4.5 0.6
v -0.7 3.8 0.6
v -0.7 4.2 0.6
v -0.7 4.5 0.6
v -0.7 4.6 0.6
v -0.6 3.1 0.6
v -0.6 3.8 0.6
v -0.6 4.3 0.6
v -0.6 4.6 0.6
v -0.6 4.7 0.6
v -0.5 3.4 0.6
v -0.5 3.5 0.6
v -0.5 3.9 0.6
v -0.5 4 0.6
v -0.5 4.2 0.6
v -0.5 4.3 0.6
v -0.5 4.7 0.6
v -0.4 3.3 0.6
v -0.4 3.4 0.6
v -0.4 3.5 0.6
v -0.4 3.8 0.6
v -0.4 3.9 0.6
v -0.4 4 0.6
v -0.4 4.1 0.6
v -0.3 3.2 0.6
v -0.3 3.3 0.6
v -0.3 3.4 0.6
v -0.3 3.8 0.6
v -0.3 3.9 0.6
v -0.3 4 0.6
v -0.3 4.1 0.6
v -0.2 3.5 0.6
v -0.2 3.7 0.6
v -0.2 3.9 0.6
v -0.2 4 0.6
v -0.1 4.2 0.6
v -0.1 4.3 0.6
v 0 3.5 0.6
v 0 3.7 0.6
v 0 3.9 0.6
v 0 4 0.6
v 0.1 3.2 0.6
v 0.1 3.3 0.6
v 0.1 3.4 0.6
v 0.1 3.8 0.6
v 0.1 3.9 0.6
v 0.1 4 0.6
v 0.1 4.1 0.6
v 0.2 3.3 0.6
v 0.2 3.4 0.6
v 0.2 3.5 0.6
v 0.2 3.8 0.6
v 0.2 3.9 0.6
v 0.2 4 0.6
v 0.2 4.1 0.6
v 0.3 3.4 0.6
v 0.3 3.5 0.6
v 0.3 3.9 0.6
v 0.3 4 0.6
v 0.3 4.2 0.6
v 0.3 4.3 0.6
v 0.3 4.7 0.6
v 0.4 3.1 0.6
v 0.4 3.8 0.6
v 0.4 4.3 0.6
v 0.4 4.6 0.6
v 0.4 4.7 0.6
v 0.5 3.8 0.6
v 0.5 4.2 0.6
v 0.5 4.5 0.6
v 0.5 4.6 0.6
v 0.6 4.4 0.6
v 0.6 4.5 0.6
v 0.7 4.3 0.6
v 0.7 4.4 0.6
v 0.8 4.2 0.6
v 0.8 4.3 0.6
v -0.8 0 0.3
v -0.8 0.2 0.3
v -0.6 0.2 0.3
v -0.6 0.9 0.3
v -0.6 1 0.3
v -0.6 1.1 0.3
v -0.6 1.4 0.3
v -0.6 2.9 0.3
v -0.5 1 0.3
v -0.5 1.1 0.3
v -0.2 0 0.3
v -0.2 0.2 0.3
v -0.2 0.9 0.3
v -0.2 1.2 0.3
v -0.1 1.2 0.3
v -0.1 1.4 0.3
v -0.1 2.2 0.3
v -0.1 2.3 0.3
v -0.1 2.9 0.3
v 0 0 0.3
v 0 0.2 0.3
v 0 0.9 0.3
v 0 1.2 0.3
v 0 2.1 0.3
v 0 2.2 0.3
v 0 2.3 0.3
v 0 2.4 0.3
v 0.1 2.1 0.3
v 0.1 2.2 0.3
v 0.1 2.3 0.3
v 0.1 2.4 0.3
v 0.2 1.7 0.3
v 0.2 1.8 0.3
v 0.2 2.2 0.3
v 0.2 2.3 0.3
v 0.2 2.6 0.3
v 0.2 2.7 0.3
v 0.3 1.2 0.3
v 0.3 1.3 0.3
v 0.3 1.7 0.3
v 0.3 1.8 0.3
v 0.3 2.6 0.3
v 0.3 2.7 0.3
v 0.4 0.2 0.3
v 0.4 0.9 0.3
v 0.4 1.2 0.3
v 0.4 1.3 0.3
v 0.4 1.4 0.3
v 0.4 2.9 0.3
v 0.6 0 0.3
v 0.6 0.2 0.3
v -0.8 1.4 0.2
v -0.8 1.6 0.2
v -0.8 2.5 0.2
v -0.8 2.8 0.2
v -0.8 2.9 0.2
v -0.7 2.8 0.2
v -0.7 2.9 0.2
v -0.7 3.5 0.2
v -0.7 3.8 0.2
v -0.6 1.4 0.2
v -0.6 1.6 0.2
v -0.6 2.5 0.2
v -0.6 2.9 0.2
v -0.6 3.5 0.2
v -0.6 3.8 0.2
v -0.4 2.9 0.2
v -0.4 3.1 0.2
v -0.1 2.9 0.2
v 0.2 2.9 0.2
v 0.2 3.1 0.2
v 0.4 1.4 0.2
v 0.4 1.6 0.2
v 0.4 2.5 0.2
v 0.4 2.9 0.2
v 0.4 3.5 0.2
v 0.4 3.8 0.2
v 0.5 2.8 0.2
v 0.5 2.9 0.2
v 0.5 3.5 0.2
v 0.5 3.8 0.2
v 0.6 1.4 0.2
v 0.6 1.6 0.2
v 0.6 2.5 0.2
v 0.6 2.8 0.2
v 0.6 2.9 0.2
v -0.7 3.1 -1.78814e-07
v -0.7 3.5 -1.78814e-07
v -0.6 3.1 -1.78814e-07
v -0.6 3.5 -1.78814e-07
v 0.4 3.1 -1.78814e-07
v 0.4 3.5 -1.78814e-07
v 0.5 3.1 -1.78814e-07
v 0.5 3.5 -1.78814e-07
v -0.8 1.4 -0.1
v -0.8 1.6 -0.1
v -0.8 2.5 -0.1
v -0.8 2.9 -0.1
v -0.6 1.4 -0.1
v -0.6 1.6 -0.1
v -0.6 2.5 -0.1
v -0.6 2.9 -0.1
v -0.4 2.9 -0.1
v -0.4 3.1 -0.1
v -0.1 2.9 -0.1
v 0.2 2.9 -0.1
v 0.2 3.1 -0.1
v 0.4 1.4 -0.1
v 0.4 1.6 -0.1
v 0.4 2.5 -0.1
v 0.4 2.9 -0.1
v 0.6 1.4 -0.1
v 0.6 1.6 -0.1
v 0.6 2.5 -0.1
v 0.6 2.9 -0.1
v -0.8 0 -0.2
v -0.8 0.2 -0.2
v -0.6 0.2 -0.2
v -0.6 0.9 -0.2
v -0.6 1.4 -0.2
v -0.6 2.9 -0.2
v -0.2 0 -0.2
v -0.2 0.2 -0.2
v -0.2 0.9 -0.2
v -0.2 1.2 -0.2
v -0.1 1.2 -0.2
v -0.1 1.4 -0.2
v -0.1 2.9 -0.2
v 0 0 -0.2
v 0 0.2 -0.2
v 0 0.9 -0.2
v 0 1.2 -0.2
v 0.4 0.2 -0.2
v 0.4 0.9 -0.2
v 0.4 1.4 -0.2
v 0.4 2.9 -0.2
v 0.6 0 -0.2
v 0.6 0.2 -0.2
v -1 4.2 -0.5
v -1 4.3 -0.5
v -0.9 4.3 -0.5
v -0.9 4.4 -0.5
v -0.8 4.4 -0.5
v -0.8 4.5 -0.5
v -0.7 3.1 -0.5
v -0.7 4.2 -0.5
v -0.7 4.5 -0.5
v -0.7 4.6 -0.5
v -0.6 4.6 -0.5
v -0.6 4.7 -0.5
v -0.5 4.3 -0.5
v -0.5 4.7 -0.5
v -0.1 3.1 -0.5
v -0.1 4.3 -0.5
v 0.3 4.3 -0.5
v 0.3 4.7 -0.5
v 0.4 4.6 -0.5
v 0.4 4.7 -0.5
v 0.5 3.1 -0.5
v 0.5 4.2 -0.5
v 0.5 4.5 -0.5
v 0.5 4.6 -0.5
v 0.6 4.4 -0.5
v 0.6 4.5 -0.5
v 0.7 4.3 -0.5
v 0.7 4.4 -0.5
v 0.8 4.2 -0.5
v 0.8 4.3 -0.5
v -0.8 0 0.3
v -0.2 0 0.3
v 0 0 0.3
v 0.6 0 0.3
v -0.8 0 -0.2
v -0.2 0 -0.2
v 0 0 -0.2
v 0.6 0 -0.2
v -0.2 1.2 0.3
v -0.1 1.2 0.3
v 0 1.2 0.3
v -0.2 1.2 0.2
v -0.2 1.2 -0.1
v -0.2 1.2 -0.2
v -0.1 1.2 -0.2
v 0 1.2 -0.2
v -0.8 1.4 0.2
v -0.6 1.4 0.2
v 0.4 1.4 0.2
v 0.6 1.4 0.2
v -0.8 1.4 -0.1
v -0.6 1.4 -0.1
v 0.4 1.4 -0.1
v 0.6 1.4 -0.1
v -0.6 3.1 0.6
v 0.4 3.1 0.6
v -0.4 3.1 0.2
v 0.2 3.1 0.2
v -0.7 3.1 -1.78814e-07
v -0.6 3.1 -1.78814e-07
v 0.4 3.1 -1.78814e-07
v 0.5 3.1 -1.78814e-07
v -0.4 3.1 -0.1
v 0.2 3.1 -0.1
v -0.6 3.1 -0.4
v -0.1 3.1 -0.4
v 0.4 3.1 -0.4
v -0.7 3.1 -0.5
v -0.1 3.1 -0.5
v 0.5 3.1 -0.5
v -0.2 3.5 0.8
v 0 3.5 0.8
v -0.2 3.5 0.6
v 0 3.5 0.6
v -0.7 3.5 0.2
v -0.6 3.5 0.2
v 0.4 3.5 0.2
v 0.5 3.5 0.2
v -0.7 3.5 -1.78814e-07
v -0.6 3.5 -1.78814e-07
v 0.4 3.5 -1.78814e-07
v 0.5 3.5 -1.78814e-07
v -0.7 3.8 0.6
v -0.6 3.8 0.6
v 0.4 3.8 0.6
v 0.5 3.8 0.6
v -0.7 3.8 0.2
v -0.6 3.8 0.2
v 0.4 3.8 0.2
v 0.5 3.8 0.2
v -1 4.2 0.6
v -0.7 4.2 0.6
v 0.5 4.2 0.6
v 0.8 4.2 0.6
v -1 4.2 -0.5
v -0.7 4.2 -0.5
v 0.5 4.2 -0.5
v 0.8 4.2 -0.5
v -0.8 0.2 0.3
v -0.6 0.2 0.3
v 0.4 0.2 0.3
v 0.6 0.2 0.3
v -0.8 0.2 -0.2
v -0.6 0.2 -0.2
v 0.4 0.2 -0.2
v 0.6 0.2 -0.2
v -0.6 2.9 0.3
v -0.1 2.9 0.3
v 0.4 2.9 0.3
v -0.8 2.9 0.2
v -0.7 2.9 0.2
v -0.6 2.9 0.2
v -0.4 2.9 0.2
v -0.1 2.9 0.2
v 0.2 2.9 0.2
v 0.4 2.9 0.2
v 0.5 2.9 0.2
v 0.6 2.9 0.2
v -0.8 2.9 0.0999998
v -0.7 2.9 0.0999998
v 0.5 2.9 0.0999998
v 0.6 2.9 0.0999998
v -0.8 2.9 -0.1
v -0.6 2.9 -0.1
v -0.4 2.9 -0.1
v -0.1 2.9 -0.1
v 0.2 2.9 -0.1
v 0.4 2.9 -0.1
v 0.6 2.9 -0.1
v -0.6 2.9 -0.2
v -0.1 2.9 -0.2
v 0.4 2.9 -0.2
v -0.2 3.7 0.8
v 0 3.7 0.8
v -0.2 3.7 0.6
v 0 3.7 0.6
v -1 4.3 0.6
v -0.9 4.3 0.6
v -0.5 4.3 0.6
v -0.1 4.3 0.6
v 0.3 4.3 0.6
v 0.7 4.3 0.6
v 0.8 4.3 0.6
v -1 4.3 -0.5
v -0.9 4.3 -0.5
v -0.5 4.3 -0.5
v -0.1 4.3 -0.5
v 0.3 4.3 -0.5
v 0.7 4.3 -0.5
v 0.8 4.3 -0.5
v -0.9 4.4 0.6
v -0.8 4.4 0.6
v 0.6 4.4 0.6
v 0.7 4.4 0.6
v -0.9 4.4 -0.5
v -0.8 4.4 -0.5
v 0.6 4.4 -0.5
v 0.7 4.4 -0.5
v -0.8 4.5 0.6
v -0.7 4.5 0.6
v 0.5 4.5 0.6
v 0.6 4.5 0.6
v -0.8 4.5 -0.5
v -0.7 4.5 -0.5
v 0.5 4.5 -0.5
v 0.6 4.5 -0.5
v -0.7 4.6 0.6
v -0.6 4.6 0.6
v 0.4 4.6 0.6
v 0.5 4.6 0.6
v -0.7 4.6 -0.5
v -0.6 4.6 -0.5
v 0.4 4.6 -0.5
v 0.5 4.6 -0.5
v -0.6 4.7 0.6
v -0.5 4.7 0.6
v 0.3 4.7 0.6
v 0.4 4.7 0.6
v -0.6 4.7 -0.5
v -0.5 4.7 -0.5
v 0.3 4.7 -0.5
v 0.4 4.7 -0.5

# faces
f 3/2/1 2/2/1 1/2/1
f 4/2/1 2/2/1 3/2/1
f 7/2/1 6/2/1 5/2/1
f 8/2/1 6/2/1 7/2/1
f 11/6/1 10/6/1 9/6/1
f 12/6/1 10/6/1 11/6/1
f 15/3/1 14/3/1 13/3/1
f 16/3/1 14/3/1 15/3/1
f 17/1/1 16/1/1 15/1/1
f 18/1/1 16/1/1 17/1/1
f 19/2/1 18/2/1 17/2/1
f 20/2/1 18/2/1 19/2/1
f 21/7/1 20/7/1 19/7/1
f 22/2/1 18/2/1 20/2/1
f 22/7/1 20/7/1 21/7/1
f 23/2/1 18/2/1 22/2/1
f 26/2/1 25/2/1 24/2/1
f 27/2/1 25/2/1 26/2/1
f 31/2/1 29/2/1 28/2/1
f 33/1/1 31/1/1 30/1/1
f 34/2/1 29/2/1 31/2/1
f 34/1/1 31/1/1 33/1/1
f 35/2/1 33/2/1 32/2/1
f 35/2/1 34/2/1 33/2/1
f 36/2/1 29/2/1 34/2/1
f 36/2/1 34/2/1 35/2/1
f 39/2/1 38/2/1 37/2/1
f 40/2/1 38/2/1 39/2/1
f 43/1/1 42/1/1 41/1/1
f 44/1/1 42/1/1 43/1/1
f 45/2/1 44/2/1 43/2/1
f 46/2/1 44/2/1 45/2/1
f 47/7/1 46/7/1 45/7/1
f 48/2/1 44/2/1 46/2/1
f 48/7/1 46/7/1 47/7/1
f 49/2/1 48/2/1 47/2/1
f 50/2/1 44/2/1 48/2/1
f 50/2/1 48/2/1 49/2/1
f 51/2/1 44/2/1 50/2/1
f 52/2/1 44/2/1 51/2/1
f 53/7/1 50/7/1 49/7/1
f 54/7/1 52/7/1 51/7/1
f 55/7/1 53/7/1 49/7/1
f 56/7/1 52/7/1 54/7/1
f 57/7/1 55/7/1 49/7/1
f 58/7/1 55/7/1 57/7/1
f 59/7/1 52/7/1 56/7/1
f 60/7/1 52/7/1 59/7/1
f 63/1/1 62/1/1 61/1/1
f 64/1/1 62/1/1 63/1/1
f 65/1/1 63/1/1 61/1/1
f 66/1/1 63/1/1 65/1/1
f 69/2/1 68/2/1 67/2/1
f 70/2/1 68/2/1 69/2/1
f 73/1/1 72/1/1 71/1/1
f 74/1/1 72/1/1 73/1/1
f 77/6/1 76/6/1 75/6/1
f 78/6/1 76/6/1 77/6/1
f 81/6/1 80/6/1 79/6/1
f 82/6/1 80/6/1 81/6/1
f 83/1/1 82/1/1 81/1/1
f 84/1/1 82/1/1 83/1/1
f 85/7/1 84/7/1 83/7/1
f 86/7/1 84/7/1 85/7/1
f 89/7/1 88/7/1 87/7/1
f 90/7/1 88/7/1 89/7/1
f 91/2/2 92/2/2 93/2/2
f 93/2/2 92/2/2 94/2/2
f 95/6/2 96/6/2 97/6/2
f 97/6/2 96/6/2 98/6/2
f 97/1/2 98/1/2 99/1/2
f 99/1/2 98/1/2 100/1/2
f 100/1/2 98/1/2 101/1/2
f 101/1/2 98/1/2 102/1/2
f 99/2/2 100/2/2 103/2/2
f 100/1/2 101/1/2 104/1/2
f 103/2/2 100/2/2 104/2/2
f 101/2/2 102/2/2 105/2/2
f 104/1/2 101/1/2 105/1/2
f 105/2/2 102/2/2 106/2/2
f 107/6/2 108/6/2 109/6/2
f 109/6/2 108/6/2 110/6/2
f 111/1/2 112/1/2 113/1/2
f 113/1/2 112/1/2 114/1/2
f 115/1/2 116/1/2 117/1/2
f 117/1/2 116/1/2 118/1/2
f 117/7/2 118/7/2 119/7/2
f 119/7/2 118/7/2 120/7/2
f 119/2/2 120/2/2 121/2/2
f 120/7/2 118/7/2 122/7/2
f 121/2/2 120/2/2 122/2/2
f 121/7/2 122/7/2 123/7/2
f 122/7/2 118/7/2 124/7/2
f 123/7/2 122/7/2 124/7/2
f 124/7/2 118/7/2 125/7/2
f 125/7/2 118/7/2 126/7/2
f 123/2/2 124/2/2 127/2/2
f 125/2/2 126/2/2 128/2/2
f 123/2/2 127/2/2 129/2/2
f 128/2/2 126/2/2 130/2/2
f 123/2/2 129/2/2 131/2/2
f 131/2/2 129/2/2 132/2/2
f 130/2/2 126/2/2 133/2/2
f 133/2/2 126/2/2 134/2/2
f 135/1/2 136/1/2 137/1/2
f 137/1/2 136/1/2 138/1/2
f 135/1/2 137/1/2 139/1/2
f 139/1/2 137/1/2 140/1/2
f 141/7/2 142/7/2 143/7/2
f 143/7/2 142/7/2 144/7/2
f 145/7/2 146/7/2 148/7/2
f 147/1/2 148/1/2 150/1/2
f 148/7/2 146/7/2 151/7/2
f 150/1/2 148/1/2 151/1/2
f 149/7/2 150/7/2 152/7/2
f 150/7/2 151/7/2 152/7/2
f 151/7/2 146/7/2 153/7/2
f 152/7/2 151/7/2 153/7/2
f 154/7/2 155/7/2 156/7/2
f 156/7/2 155/7/2 157/7/2
f 158/6/2 159/6/2 160/6/2
f 160/6/2 159/6/2 161/6/2
f 162/3/2 163/3/2 164/3/2
f 164/3/2 163/3/2 165/3/2
f 164/1/2 165/1/2 166/1/2
f 166/1/2 165/1/2 167/1/2
f 166/7/2 167/7/2 168/7/2
f 168/7/2 167/7/2 169/7/2
f 168/2/2 169/2/2 170/2/2
f 169/7/2 167/7/2 171/7/2
f 170/2/2 169/2/2 171/2/2
f 171/7/2 167/7/2 172/7/2
f 173/7/2 174/7/2 175/7/2
f 175/7/2 174/7/2 176/7/2
f 177/7/2 178/7/2 179/7/2
f 179/7/2 178/7/2 180/7/2
f 181/7/2 182/7/2 183/7/2
f 183/7/2 182/7/2 184/7/2
f 187/6/3 186/6/3 185/6/3
f 188/6/3 186/6/3 187/6/3
f 191/2/3 190/2/3 189/2/3
f 193/2/3 192/2/3 191/2/3
f 196/2/3 191/2/3 189/2/3
f 196/2/3 194/2/3 193/2/3
f 196/2/3 193/2/3 191/2/3
f 197/2/3 194/2/3 196/2/3
f 200/2/3 196/2/3 195/2/3
f 200/2/3 198/2/3 197/2/3
f 200/2/3 197/2/3 196/2/3
f 201/2/3 198/2/3 200/2/3
f 202/2/3 198/2/3 201/2/3
f 204/1/3 200/1/3 199/1/3
f 204/1/3 201/1/3 200/1/3
f 205/1/3 201/1/3 204/1/3
f 206/1/3 201/1/3 205/1/3
f 207/1/3 201/1/3 206/1/3
f 208/1/3 201/1/3 207/1/3
f 209/2/3 203/2/3 202/2/3
f 209/1/3 201/1/3 208/1/3
f 209/2/3 202/2/3 201/2/3
f 210/2/3 203/2/3 209/2/3
f 211/1/3 204/1/3 199/1/3
f 212/6/3 205/6/3 204/6/3
f 212/1/3 204/1/3 211/1/3
f 213/1/3 206/1/3 205/1/3
f 213/6/3 205/6/3 212/6/3
f 214/1/3 206/1/3 213/1/3
f 215/6/3 207/6/3 206/6/3
f 215/1/3 206/1/3 214/1/3
f 216/1/3 208/1/3 207/1/3
f 216/6/3 207/6/3 215/6/3
f 217/1/3 208/1/3 216/1/3
f 218/1/3 211/1/3 199/1/3
f 219/6/3 212/6/3 211/6/3
f 219/1/3 211/1/3 218/1/3
f 220/1/3 214/1/3 213/1/3
f 220/6/3 212/6/3 219/6/3
f 220/1/3 213/1/3 212/1/3
f 221/6/3 215/6/3 214/6/3
f 221/1/3 214/1/3 220/1/3
f 222/9/3 216/9/3 215/9/3
f 222/6/3 215/6/3 221/6/3
f 223/6/3 217/6/3 216/6/3
f 223/9/3 216/9/3 222/9/3
f 224/1/3 208/1/3 217/1/3
f 224/6/3 217/6/3 223/6/3
f 225/1/3 220/1/3 219/1/3
f 225/1/3 222/1/3 221/1/3
f 225/1/3 221/1/3 220/1/3
f 226/1/3 222/1/3 225/1/3
f 227/6/3 223/6/3 222/6/3
f 227/1/3 222/1/3 226/1/3
f 228/1/3 224/1/3 223/1/3
f 228/6/3 223/6/3 227/6/3
f 229/1/3 208/1/3 224/1/3
f 229/1/3 224/1/3 228/1/3
f 229/1/3 228/1/3 227/1/3
f 229/1/3 227/1/3 226/1/3
f 229/2/3 209/2/3 208/2/3
f 230/2/3 209/2/3 229/2/3
f 231/1/3 225/1/3 219/1/3
f 232/1/3 229/1/3 226/1/3
f 233/1/3 229/1/3 232/1/3
f 234/1/3 229/1/3 233/1/3
f 235/6/3 219/6/3 218/6/3
f 235/1/3 218/1/3 199/1/3
f 236/1/3 231/1/3 219/1/3
f 236/6/3 219/6/3 235/6/3
f 236/1/3 232/1/3 231/1/3
f 236/1/3 233/1/3 232/1/3
f 237/1/3 233/1/3 236/1/3
f 238/1/3 233/1/3 237/1/3
f 239/6/3 234/6/3 233/6/3
f 239/1/3 233/1/3 238/1/3
f 240/1/3 229/1/3 234/1/3
f 240/6/3 234/6/3 239/6/3
f 241/1/3 229/1/3 240/1/3
f 242/1/3 236/1/3 235/1/3
f 242/6/3 237/6/3 236/6/3
f 243/1/3 238/1/3 237/1/3
f 243/6/3 237/6/3 242/6/3
f 244/1/3 238/1/3 243/1/3
f 245/6/3 239/6/3 238/6/3
f 245/1/3 238/1/3 244/1/3
f 246/9/3 240/9/3 239/9/3
f 246/6/3 239/6/3 245/6/3
f 247/6/3 241/6/3 240/6/3
f 247/9/3 240/9/3 246/9/3
f 248/1/3 229/1/3 241/1/3
f 248/6/3 241/6/3 247/6/3
f 249/6/3 244/6/3 243/6/3
f 249/1/3 243/1/3 242/1/3
f 250/1/3 246/1/3 245/1/3
f 250/6/3 244/6/3 249/6/3
f 250/1/3 245/1/3 244/1/3
f 251/6/3 247/6/3 246/6/3
f 251/1/3 246/1/3 250/1/3
f 252/1/3 248/1/3 247/1/3
f 252/6/3 247/6/3 251/6/3
f 253/1/3 229/1/3 248/1/3
f 253/1/3 248/1/3 252/1/3
f 253/7/3 230/7/3 229/7/3
f 254/7/3 230/7/3 253/7/3
f 256/1/3 254/1/3 253/1/3
f 256/1/3 252/1/3 251/1/3
f 256/1/3 253/1/3 252/1/3
f 256/1/3 249/1/3 242/1/3
f 256/1/3 250/1/3 249/1/3
f 256/1/3 242/1/3 235/1/3
f 256/1/3 251/1/3 250/1/3
f 256/1/3 235/1/3 199/1/3
f 257/1/3 254/1/3 256/1/3
f 258/7/3 255/7/3 254/7/3
f 258/1/3 254/1/3 257/1/3
f 259/7/3 255/7/3 258/7/3
f 260/7/3 255/7/3 259/7/3
f 261/7/3 258/7/3 257/7/3
f 261/7/3 259/7/3 258/7/3
f 262/7/3 259/7/3 261/7/3
f 263/7/3 259/7/3 262/7/3
f 264/7/3 259/7/3 263/7/3
f 265/7/3 263/7/3 262/7/3
f 266/7/3 263/7/3 265/7/3
f 267/7/3 265/7/3 262/7/3
f 268/7/3 265/7/3 267/7/3
f 269/7/3 267/7/3 262/7/3
f 270/7/3 267/7/3 269/7/3
f 273/6/3 272/6/3 271/6/3
f 279/2/3 275/2/3 274/2/3
f 279/7/3 276/7/3 275/7/3
f 280/2/3 277/2/3 276/2/3
f 280/7/3 276/7/3 279/7/3
f 281/6/3 273/6/3 271/6/3
f 282/1/3 274/1/3 273/1/3
f 282/6/3 273/6/3 281/6/3
f 283/2/3 279/2/3 274/2/3
f 283/1/3 274/1/3 282/1/3
f 283/2/3 280/2/3 279/2/3
f 284/2/3 277/2/3 280/2/3
f 284/2/3 280/2/3 283/2/3
f 285/2/3 277/2/3 284/2/3
f 286/7/3 278/7/3 277/7/3
f 286/2/3 277/2/3 285/2/3
f 287/7/3 278/7/3 286/7/3
f 288/7/3 278/7/3 287/7/3
f 289/7/3 278/7/3 288/7/3
f 293/7/3 286/7/3 285/7/3
f 294/2/3 287/2/3 286/2/3
f 295/7/3 288/7/3 287/7/3
f 295/2/3 287/2/3 294/2/3
f 296/2/3 289/2/3 288/2/3
f 296/7/3 288/7/3 295/7/3
f 297/2/3 289/2/3 296/2/3
f 298/2/3 294/2/3 286/2/3
f 298/7/3 295/7/3 294/7/3
f 298/7/3 297/7/3 296/7/3
f 298/7/3 296/7/3 295/7/3
f 299/7/3 297/7/3 298/7/3
f 300/7/3 297/7/3 299/7/3
f 301/2/3 289/2/3 297/2/3
f 301/7/3 297/7/3 300/7/3
f 302/2/3 298/2/3 286/2/3
f 302/2/3 299/2/3 298/2/3
f 303/2/3 299/2/3 302/2/3
f 304/7/3 300/7/3 299/7/3
f 304/2/3 299/2/3 303/2/3
f 305/2/3 301/2/3 300/2/3
f 305/7/3 300/7/3 304/7/3
f 306/2/3 289/2/3 301/2/3
f 306/2/3 301/2/3 305/2/3
f 307/2/3 289/2/3 306/2/3
f 308/7/3 293/7/3 292/7/3
f 308/7/3 286/7/3 293/7/3
f 309/7/3 286/7/3 308/7/3
f 310/7/3 303/7/3 302/7/3
f 310/2/3 302/2/3 286/2/3
f 311/2/3 305/2/3 304/2/3
f 311/7/3 303/7/3 310/7/3
f 311/2/3 304/2/3 303/2/3
f 311/2/3 306/2/3 305/2/3
f 312/7/3 307/7/3 306/7/3
f 312/2/3 306/2/3 311/2/3
f 313/2/3 289/2/3 307/2/3
f 313/7/3 307/7/3 312/7/3
f 314/1/3 292/1/3 291/1/3
f 314/6/3 291/6/3 290/6/3
f 315/7/3 308/7/3 292/7/3
f 315/1/3 292/1/3 314/1/3
f 316/2/3 309/2/3 308/2/3
f 316/7/3 308/7/3 315/7/3
f 317/7/3 286/7/3 309/7/3
f 317/2/3 309/2/3 316/2/3
f 318/2/3 312/2/3 311/2/3
f 318/7/3 286/7/3 317/7/3
f 318/2/3 311/2/3 310/2/3
f 318/2/3 313/2/3 312/2/3
f 318/2/3 310/2/3 286/2/3
f 319/2/3 289/2/3 313/2/3
f 319/2/3 313/2/3 318/2/3
f 320/6/3 314/6/3 290/6/3
f 321/6/3 314/6/3 320/6/3
f 327/2/3 325/2/3 324/2/3
f 327/7/3 326/7/3 325/7/3
f 328/7/3 326/7/3 327/7/3
f 331/3/3 323/3/3 322/3/3
f 332/1/3 324/1/3 323/1/3
f 332/3/3 323/3/3 331/3/3
f 333/2/3 327/2/3 324/2/3
f 333/1/3 324/1/3 332/1/3
f 333/2/3 328/2/3 327/2/3
f 334/2/3 328/2/3 333/2/3
f 335/1/3 330/1/3 329/1/3
f 336/1/3 330/1/3 335/1/3
f 339/1/3 338/1/3 337/1/3
f 340/1/3 338/1/3 339/1/3
f 341/1/3 338/1/3 340/1/3
f 348/7/3 345/7/3 344/7/3
f 349/7/3 345/7/3 348/7/3
f 350/1/3 347/1/3 346/1/3
f 351/1/3 347/1/3 350/1/3
f 352/3/3 343/3/3 342/3/3
f 353/1/3 344/1/3 343/1/3
f 353/3/3 343/3/3 352/3/3
f 354/7/3 348/7/3 344/7/3
f 354/1/3 344/1/3 353/1/3
f 355/2/3 349/2/3 348/2/3
f 355/7/3 348/7/3 354/7/3
f 356/2/3 349/2/3 355/2/3
f 359/2/3 358/2/3 357/2/3
f 360/2/3 358/2/3 359/2/3
f 363/7/3 362/7/3 361/7/3
f 364/7/3 362/7/3 363/7/3
f 365/3/4 366/3/4 369/3/4
f 366/1/4 367/1/4 370/1/4
f 369/3/4 366/3/4 370/3/4
f 367/2/4 368/2/4 371/2/4
f 370/1/4 367/1/4 371/1/4
f 371/2/4 368/2/4 372/2/4
f 373/1/4 374/1/4 375/1/4
f 375/1/4 374/1/4 376/1/4
f 376/1/4 374/1/4 377/1/4
f 378/3/4 379/3/4 382/3/4
f 379/1/4 380/1/4 383/1/4
f 382/3/4 379/3/4 383/3/4
f 380/7/4 381/7/4 384/7/4
f 383/1/4 380/1/4 384/1/4
f 384/7/4 381/7/4 385/7/4
f 386/6/4 387/6/4 388/6/4
f 386/6/4 388/6/4 392/6/4
f 388/1/4 389/1/4 393/1/4
f 392/6/4 388/6/4 393/6/4
f 389/2/4 390/2/4 394/2/4
f 393/1/4 389/1/4 394/1/4
f 394/2/4 390/2/4 395/2/4
f 395/2/4 390/2/4 396/2/4
f 390/7/4 391/7/4 397/7/4
f 396/2/4 390/2/4 397/2/4
f 397/7/4 391/7/4 398/7/4
f 396/7/4 397/7/4 402/7/4
f 400/1/4 401/1/4 403/1/4
f 399/6/4 400/6/4 403/6/4
f 401/7/4 402/7/4 404/7/4
f 403/1/4 401/1/4 404/1/4
f 397/2/4 398/2/4 405/2/4
f 404/7/4 402/7/4 405/7/4
f 402/7/4 397/7/4 405/7/4
f 405/2/4 398/2/4 406/2/4
f 399/6/4 403/6/4 407/6/4
f 407/6/4 403/6/4 408/6/4
f 409/2/4 410/2/4 411/2/4
f 411/2/4 412/2/4 413/2/4
f 409/2/4 411/2/4 416/2/4
f 413/2/4 414/2/4 416/2/4
f 411/2/4 413/2/4 416/2/4
f 416/2/4 414/2/4 417/2/4
f 415/2/4 416/2/4 419/2/4
f 417/2/4 418/2/4 419/2/4
f 416/2/4 417/2/4 419/2/4
f 415/2/4 419/2/4 421/2/4
f 419/2/4 420/2/4 421/2/4
f 421/2/4 420/2/4 422/2/4
f 415/2/4 421/2/4 423/2/4
f 423/2/4 421/2/4 424/2/4
f 423/7/4 424/7/4 425/7/4
f 425/7/4 426/7/4 427/7/4
f 427/7/4 426/7/4 428/7/4
f 423/7/4 425/7/4 429/7/4
f 425/7/4 427/7/4 429/7/4
f 429/7/4 427/7/4 430/7/4
f 430/7/4 427/7/4 431/7/4
f 431/7/4 427/7/4 432/7/4
f 430/7/4 431/7/4 433/7/4
f 433/7/4 431/7/4 434/7/4
f 430/7/4 433/7/4 435/7/4
f 435/7/4 433/7/4 436/7/4
f 430/7/4 435/7/4 437/7/4
f 437/7/4 435/7/4 438/7/4
f 443/6/5 440/6/5 439/6/5
f 444/6/5 440/6/5 443/6/5
f 445/6/5 442/6/5 441/6/5
f 446/6/5 442/6/5 445/6/5
f 450/2/5 448/2/5 447/2/5
f 451/2/5 448/2/5 450/2/5
f 452/2/5 448/2/5 451/2/5
f 453/7/5 449/7/5 448/7/5
f 453/2/5 448/2/5 452/2/5
f 454/7/5 449/7/5 453/7/5
f 459/3/5 456/3/5 455/3/5
f 460/3/5 456/3/5 459/3/5
f 461/3/5 458/3/5 457/3/5
f 462/3/5 458/3/5 461/3/5
f 465/1/5 464/1/5 463/1/5
f 466/1/5 464/1/5 465/1/5
f 468/1/5 465/1/5 463/1/5
f 469/1/5 464/1/5 466/1/5
f 471/1/5 465/1/5 468/1/5
f 472/1/5 469/1/5 466/1/5
f 473/2/5 468/2/5 467/2/5
f 473/1/5 472/1/5 471/1/5
f 473/1/5 471/1/5 468/1/5
f 474/1/5 472/1/5 473/1/5
f 475/1/5 469/1/5 472/1/5
f 475/1/5 472/1/5 474/1/5
f 475/7/5 470/7/5 469/7/5
f 476/2/5 474/2/5 473/2/5
f 476/2/5 473/2/5 467/2/5
f 477/7/5 475/7/5 474/7/5
f 477/2/5 474/2/5 476/2/5
f 478/7/5 470/7/5 475/7/5
f 478/7/5 475/7/5 477/7/5
f 481/6/5 480/6/5 479/6/5
f 482/6/5 480/6/5 481/6/5
f 487/1/5 484/1/5 483/1/5
f 488/1/5 484/1/5 487/1/5
f 489/1/5 486/1/5 485/1/5
f 490/1/5 486/1/5 489/1/5
f 495/2/5 492/2/5 491/2/5
f 496/2/5 492/2/5 495/2/5
f 497/7/5 494/7/5 493/7/5
f 498/7/5 494/7/5 497/7/5
f 503/2/5 500/2/5 499/2/5
f 504/2/5 500/2/5 503/2/5
f 505/7/5 502/7/5 501/7/5
f 506/7/5 502/7/5 505/7/5
f 507/6/6 508/6/6 511/6/6
f 511/6/6 508/6/6 512/6/6
f 509/6/6 510/6/6 513/6/6
f 513/6/6 510/6/6 514/6/6
f 515/7/6 516/7/6 520/7/6
f 520/7/6 516/7/6 521/7/6
f 516/2/6 517/2/6 522/2/6
f 521/7/6 516/7/6 522/7/6
f 522/2/6 517/2/6 523/2/6
f 523/2/6 517/2/6 524/2/6
f 518/7/6 519/7/6 527/7/6
f 519/2/6 520/2/6 528/2/6
f 527/7/6 519/7/6 528/7/6
f 525/2/6 526/2/6 529/2/6
f 524/7/6 525/7/6 529/7/6
f 529/2/6 526/2/6 530/2/6
f 527/2/6 528/2/6 531/2/6
f 528/2/6 520/2/6 532/2/6
f 531/2/6 528/2/6 532/2/6
f 520/7/6 521/7/6 532/7/6
f 532/7/6 521/7/6 533/7/6
f 523/2/6 524/2/6 535/2/6
f 529/7/6 530/7/6 536/7/6
f 524/7/6 529/7/6 536/7/6
f 535/2/6 524/2/6 536/2/6
f 536/7/6 530/7/6 537/7/6
f 533/7/6 534/7/6 538/7/6
f 532/7/6 533/7/6 538/7/6
f 534/2/6 535/2/6 539/2/6
f 538/7/6 534/7/6 539/7/6
f 535/2/6 536/2/6 539/2/6
f 539/2/6 536/2/6 540/2/6
f 541/6/6 542/6/6 543/6/6
f 543/6/6 542/6/6 544/6/6
f 545/2/6 546/2/6 552/2/6
f 552/2/6 546/2/6 553/2/6
f 547/2/6 548/2/6 554/2/6
f 548/7/6 549/7/6 555/7/6
f 554/2/6 548/2/6 555/2/6
f 555/7/6 549/7/6 556/7/6
f 550/7/6 551/7/6 557/7/6
f 557/7/6 551/7/6 558/7/6
f 559/2/6 560/2/6 563/2/6
f 563/2/6 560/2/6 564/2/6
f 561/7/6 562/7/6 565/7/6
f 565/7/6 562/7/6 566/7/6
f 567/2/6 568/2/6 571/2/6
f 571/2/6 568/2/6 572/2/6
f 569/7/6 570/7/6 573/7/6
f 573/7/6 570/7/6 574/7/6
f 575/2/6 576/2/6 579/2/6
f 579/2/6 576/2/6 580/2/6
f 577/7/6 578/7/6 581/7/6
f 581/7/6 578/7/6 582/7/6
f 583/2/6 584/2/6 587/2/6
f 587/2/6 584/2/6 588/2/6
f 585/7/6 586/7/6 589/7/6
f 589/7/6 586/7/6 590/7/6
